Coordinates
version=1
nRows=43
nColumns=12
inDegrees=yes

Units are S.I. units (second, meters, Newtons, ...)
Angles are in degrees

endheader
time	SC_y	SC_z	SC_x	AC_y	AC_z	AC_x	GH_y	GH_z	GH_yy	EL_x	PS_y
       0.0              -44.32          19.23          61.51          65.47          5.429          11.03          167.9          88.62         -11.15          36.55          157.9
   0.01093              -44.32          19.23          61.51          65.47          5.426          11.03          167.8          88.62         -11.14          36.56          157.9
   0.02186              -44.32          19.24          61.51          65.47          5.423          11.03          167.8          88.62         -11.14          36.58          157.9
   0.03278              -44.32          19.24          61.52          65.47           5.42          11.03          167.8          88.62         -11.14          36.59          157.9
   0.04371              -44.32          19.24          61.52          65.47          5.417          11.03          167.7          88.61         -11.13           36.6          157.8
   0.05464              -44.32          19.24          61.53          65.47          5.414          11.03          167.7          88.61         -11.13          36.62          157.8
   0.06557              -44.33          19.24          61.53          65.46           5.41          11.03          167.6          88.61         -11.13          36.63          157.8
   0.07649              -44.33          19.25          61.54          65.46          5.406          11.03          167.6          88.61         -11.12          36.65          157.8
   0.08742              -44.33          19.25          61.54          65.46          5.402          11.03          167.5          88.61         -11.12          36.67          157.8
   0.09835              -44.33          19.25          61.55          65.46          5.398          11.04          167.5          88.61         -11.11          36.69          157.8
    0.1093              -44.33          19.25          61.55          65.46          5.393          11.04          167.4          88.61         -11.11          36.71          157.8
    0.1202              -44.33          19.26          61.56          65.45          5.388          11.04          167.3          88.61          -11.1          36.74          157.7
    0.1311              -44.33          19.26          61.57          65.45          5.382          11.04          167.3          88.61         -11.09          36.76          157.7
    0.1421              -44.33          19.26          61.57          65.45          5.376          11.04          167.2          88.61         -11.09          36.79          157.7
     0.153              -44.33          19.27          61.58          65.45           5.37          11.04          167.1          88.61         -11.08          36.82          157.7
    0.1639              -44.33          19.27          61.59          65.44          5.363          11.04          167.0           88.6         -11.07          36.85          157.6
    0.1748              -44.33          19.28           61.6          65.44          5.355          11.04          166.9           88.6         -11.06          36.88          157.6
    0.1858              -44.33          19.28          61.61          65.44          5.347          11.05          166.8           88.6         -11.05          36.92          157.6
    0.1967              -44.33          19.29          61.62          65.43          5.338          11.05          166.7           88.6         -11.04          36.96          157.5
    0.2076              -44.33          19.29          61.64          65.43          5.328          11.05          166.5           88.6         -11.03          37.01          157.5
    0.2186              -44.33           19.3          61.65          65.42          5.317          11.05          166.4           88.6         -11.02          37.06          157.5
    0.2295              -44.33          19.31          61.67          65.42          5.305          11.05          166.2          88.59          -11.0          37.11          157.4
    0.2404              -44.33          19.32          61.68          65.41          5.292          11.06          166.0          88.59         -10.99          37.17          157.4
    0.2513              -44.33          19.32           61.7           65.4          5.277          11.06          165.8          88.59         -10.97          37.24          157.3
    0.2623              -44.33          19.33          61.72           65.4          5.261          11.06          165.6          88.59         -10.95          37.31          157.3
    0.2732              -44.33          19.35          61.75          65.39          5.243          11.07          165.4          88.58         -10.93          37.39          157.2
    0.2841              -44.33          19.36          61.77          65.38          5.222          11.07          165.1          88.58         -10.91          37.49          157.1
     0.295              -44.33          19.37           61.8          65.37          5.199          11.07          164.8          88.57         -10.88          37.59          157.0
     0.306              -44.34          19.39          61.84          65.36          5.174          11.08          164.4          88.57         -10.85          37.71          156.9
    0.3169              -44.34          19.41          61.87          65.34          5.144          11.09          164.0          88.56         -10.82          37.84          156.8
    0.3278              -44.34          19.43          61.92          65.33          5.111          11.09          163.6          88.56         -10.78          37.99          156.7
    0.3388              -44.34          19.45          61.97          65.31          5.072           11.1          163.1          88.55         -10.74          38.17          156.5
    0.3497              -44.34          19.48          62.02          65.29          5.028          11.11          162.4          88.54         -10.68          38.37          156.4
    0.3606              -44.34          19.51          62.09          65.26          4.976          11.12          161.7          88.53         -10.62          38.61          156.2
    0.3715              -44.35          19.54          62.17          65.24          4.915          11.13          160.9          88.52         -10.56          38.88          155.9
    0.3825              -44.35          19.59          62.26           65.2          4.844          11.14          160.0          88.51         -10.47           39.2          155.7
    0.3934              -44.35          19.64          62.37          65.17          4.759          11.16          158.8          88.49         -10.38          39.59          155.4
    0.4043              -44.36           19.7           62.5          65.12          4.658          11.18          157.4          88.47         -10.26          40.05          155.0
    0.4152              -44.36          19.77          62.66          65.06          4.535          11.21          155.8          88.45         -10.12          40.61          154.5
    0.4262              -44.37          19.86          62.85          64.99          4.385          11.24          153.7          88.42         -9.944          41.29          153.9
    0.4371              -44.38          19.98          63.09          64.91            4.2          11.27          151.2          88.39          -9.73          42.13          153.2
     0.448              -44.39          20.12          63.38           64.8          3.969          11.32          148.1          88.34         -9.464          43.18          152.4
     0.459               -44.4          20.29          63.76          64.67          3.678          11.38          144.2          88.29         -9.129           44.5          151.3
